<svg class="svg-icon" style="width: 1em;height: 1em;vertical-align: middle;fill: currentColor;overflow: hidden;" viewBox="0 0 1024 1024" version="1.1" xmlns="http://www.w3.org/2000/svg"><path d="M799.98 238.75v143.34c0 5.94-6.64 9.35-11.35 5.84l-43.25-32.25v35.34c0 2.95-1.85 5.37-4.12 5.37h-222.4c-2.27 0-4.12-2.42-4.12-5.37v-161.2c0-2.95 1.85-5.37 4.12-5.37h222.39c2.27 0 4.12 2.42 4.12 5.37v35.36l43.25-32.26c4.71-3.51 11.36-0.1 11.36 5.83zM725.42 693.63c0 56.97-43.18 103.53-97.58 106.65-2.57 0.08-5.12 0.13-7.7 0.15-1.18 0.02-2.37 0.02-3.54 0.02-216.84 0-392.62-181.57-392.62-405.54 0-1.43 0-2.85 0.03-4.28v-0.32c0.03-3.27 0.11-6.54 0.23-9.79 3.65-55.57 48.44-99.45 103.15-99.45 18.25 0 35.39 4.87 50.26 13.44 31.71 18.24 53.15 53.22 53.15 93.36 0 43.79-25.5 81.41-61.99 97.89 25.16 77.15 84.07 138.28 158.58 164.66 16.08-37.47 52.38-63.61 94.61-63.61 39.08 0 73.1 22.39 90.69 55.43 8.12 15.24 12.73 32.76 12.73 51.39z" fill="#2B97D0" /></svg>